<svg width="30" height="30" viewBox="0 0 30 30" fill="none" xmlns="http://www.w3.org/2000/svg">
<g clip-path="url(#clip0)">
<path fill-rule="evenodd" clip-rule="evenodd" d="M20.25 7.01672C20.1609 5.46615 19.4636 4.00756 18.3013 2.94047C17.139 1.87338 15.5998 1.27878 14 1.27878C12.4002 1.27878 10.861 1.87338 9.69872 2.94047C8.5364 4.00756 7.83913 5.46615 7.75 7.01672C7.83913 8.56728 8.5364 10.0259 9.69872 11.093C10.861 12.1601 12.4002 12.7547 14 12.7547C15.5998 12.7547 17.139 12.1601 18.3013 11.093C19.4636 10.0259 20.1609 8.56728 20.25 7.01672V7.01672ZM15.2917 17.5329H12.7083C9.81839 17.4545 7.01467 18.493 4.91305 20.4201C2.81144 22.3472 1.5839 25.0053 1.5 27.8105V29.7088H26.5V27.8145C26.4161 25.0093 25.1886 22.3512 23.0869 20.4241C20.9853 18.497 18.1816 17.4586 15.2917 17.537V17.5329Z" stroke="#FDAA4B" stroke-width="2"/>
</g>
<defs>
<clipPath id="clip0">
<rect width="30" height="30" fill="white"/>
</clipPath>
</defs>
</svg>
