<svg width="30" height="30" viewBox="0 0 30 30" fill="none" xmlns="http://www.w3.org/2000/svg">
<g clip-path="url(#clip0)">
<path fill-rule="evenodd" clip-rule="evenodd" d="M26.8222 23.562H8.28092L9.83037 20.6041H26.1103C26.5966 20.6015 27.0623 20.375 27.4056 19.9742C27.7489 19.5734 27.9419 19.0307 27.9425 18.4648V9.5582C27.9415 9.03876 27.7786 8.53737 27.484 8.14709C27.1895 7.75681 26.7832 7.50415 26.3406 7.43602L9.73618 4.93617C9.61059 4.91777 9.48305 4.92834 9.36096 4.96727C9.23888 5.0062 9.12458 5.07273 9.02459 5.16306C8.9246 5.25339 8.84099 5.36575 8.77832 5.49373C8.71565 5.62171 8.67515 5.76279 8.65934 5.90894C8.64353 6.05508 8.65272 6.20342 8.68618 6.34548C8.71963 6.48754 8.77673 6.62054 8.85436 6.73689C8.93199 6.85324 9.02861 6.95066 9.13859 7.02358C9.24857 7.09651 9.36981 7.14351 9.49541 7.16191L26.016 9.65079V18.3588H7.62135L6.72099 2.22557L1.13038 1.00732C0.881357 0.958659 0.625844 1.0256 0.418786 1.19377C0.211728 1.36194 0.0696057 1.61792 0.0229889 1.90669C-0.023628 2.19546 0.0289492 2.49399 0.169448 2.73813C0.309946 2.98227 0.527106 3.15254 0.774326 3.21235L4.89933 4.11507L5.82064 20.6077H7.57943L5.99854 23.6278C5.34657 23.7629 4.74691 24.1308 4.28282 24.6806C3.81874 25.2303 3.51331 25.9345 3.4088 26.6954C3.30429 27.4563 3.40594 28.2363 3.69967 28.9269C3.9934 29.6176 4.46466 30.1847 5.04796 30.5495C5.63127 30.9144 6.29766 31.0589 6.95474 30.963C7.61182 30.867 8.2269 30.5355 8.71468 30.0142C9.20245 29.493 9.53874 28.8081 9.67676 28.0544C9.81477 27.3007 9.74774 26.5157 9.48493 25.8084H23.8908C23.6207 26.5413 23.5607 27.3559 23.7198 28.1315C23.879 28.9072 24.2488 29.6024 24.7743 30.1142C25.2998 30.626 25.9532 30.927 26.6374 30.9726C27.3215 31.0182 28.0001 30.806 28.5724 30.3674C29.1447 29.9288 29.5803 29.2872 29.8145 28.5378C30.0487 27.7884 30.0691 26.9711 29.8726 26.2071C29.6762 25.4432 29.2733 24.7733 28.7238 24.2968C28.1743 23.8203 27.5075 23.5626 26.8222 23.562ZM6.56393 28.7639C6.22684 28.7639 5.90359 28.6081 5.66524 28.3307C5.42688 28.0534 5.29296 27.6772 5.29296 27.2849C5.29296 26.8927 5.42688 26.5165 5.66524 26.2391C5.90359 25.9618 6.22684 25.806 6.56393 25.806C6.89456 25.817 7.20847 25.9776 7.43898 26.2537C7.66948 26.5297 7.79848 26.8994 7.79848 27.2843C7.79848 27.6692 7.66948 28.0389 7.43898 28.315C7.20847 28.591 6.89456 28.7516 6.56393 28.7627V28.7639ZM26.8222 28.7639C26.5702 28.7673 26.323 28.6834 26.1121 28.523C25.9012 28.3625 25.736 28.1327 25.6376 27.8628C25.5391 27.5929 25.5119 27.295 25.5592 27.007C25.6066 26.719 25.7265 26.4539 25.9037 26.2453C26.0808 26.0368 26.3072 25.8942 26.5542 25.8358C26.8011 25.7773 27.0573 25.8056 27.2904 25.917C27.5235 26.0284 27.7229 26.218 27.8632 26.4615C28.0035 26.7051 28.0786 26.9917 28.0786 27.2849C28.0789 27.6742 27.9469 28.0479 27.7117 28.3246C27.4764 28.6014 27.1567 28.7588 26.8222 28.7627V28.7639Z" fill="#FDAA4B"/>
</g>
<defs>
<clipPath id="clip0">
<rect width="30" height="30" fill="white"/>
</clipPath>
</defs>
</svg>
