<svg width="18" height="17" viewBox="0 0 18 17" fill="none" xmlns="http://www.w3.org/2000/svg">
<path d="M13 6.55357C13 3.00179 10.0906 0.125 6.5 0.125C2.90937 0.125 0 3.00179 0 6.55357C0 7.9317 0.440625 9.20134 1.1875 10.25C0.76875 11.4634 0.078125 12.4277 0.06875 12.4397C0 12.5321 -0.01875 12.6688 0.021875 12.7893C0.0625 12.9098 0.15 12.9821 0.25 12.9821C1.39375 12.9821 2.34062 12.4879 3.02187 11.9777C4.02812 12.6085 5.21875 12.9821 6.5 12.9821C10.0906 12.9821 13 10.1054 13 6.55357ZM16.8125 15.3929C17.5594 14.3482 18 13.0746 18 11.6964C18 9.00848 16.3281 6.70625 13.9594 5.74598C13.9875 6.01116 14 6.28036 14 6.55357C14 10.8085 10.6344 14.2679 6.5 14.2679C6.1625 14.2679 5.83437 14.2357 5.50938 14.1915C6.49375 16.5018 8.80625 18.125 11.5 18.125C12.7812 18.125 13.9719 17.7554 14.9781 17.1205C15.6594 17.6308 16.6063 18.125 17.75 18.125C17.85 18.125 17.9406 18.0487 17.9781 17.9321C18.0187 17.8156 18 17.679 17.9312 17.5826C17.9219 17.5705 17.2313 16.6103 16.8125 15.3929Z" fill="#32656A"/>
</svg>
