<svg width="23" height="24" viewBox="0 0 23 24" fill="none" xmlns="http://www.w3.org/2000/svg">
<g clip-path="url(#clip0)">
<path d="M14.7444 15.6524L22.1166 22.6507M9.82958 1.65573C11.5307 1.65573 13.1936 2.13458 14.608 3.03173C16.0224 3.92888 17.1248 5.20404 17.7758 6.69594C18.4268 8.18785 18.5971 9.8295 18.2652 11.4133C17.9333 12.9971 17.1142 14.4519 15.9114 15.5938C14.7085 16.7356 13.176 17.5132 11.5076 17.8283C9.83916 18.1433 8.10979 17.9816 6.53818 17.3637C4.96658 16.7457 3.62326 15.6992 2.67818 14.3565C1.7331 13.0138 1.2287 11.4353 1.2287 9.82044C1.2287 7.65503 2.13484 5.5783 3.74781 4.04712C5.36079 2.51594 7.54849 1.65573 9.82958 1.65573Z" stroke="white" stroke-width="2"/>
</g>
<defs>
<clipPath id="clip0">
<rect y="0.489349" width="23" height="23" rx="5" fill="white"/>
</clipPath>
</defs>
</svg>
