<svg width="30" height="30" viewBox="0 0 30 30" fill="none" xmlns="http://www.w3.org/2000/svg">
<g clip-path="url(#clip0)">
<path fill-rule="evenodd" clip-rule="evenodd" d="M15.0203 29.0905L14.3663 28.5583C13.9907 28.2522 5.08668 21.021 2.36097 17.3369C-0.837199 13.0142 -0.752357 7.31169 2.55484 3.77791C4.23971 2.08041 6.45768 1.16557 8.74344 1.22535C11.0292 1.28513 13.2051 2.31489 14.8145 4.09856L15.0203 4.32208L15.2263 4.09856C16.8357 2.31489 19.0116 1.28513 21.2974 1.22535C23.5831 1.16557 25.8011 2.08041 27.486 3.77791C30.7932 7.31169 30.8659 13.0142 27.6677 17.3369C24.942 21.021 16.0501 28.2469 15.6745 28.5583L15.0203 29.0905ZM8.45448 3.67015C6.83649 3.64932 5.27528 4.3251 4.10535 5.55279C1.31907 8.51977 1.99746 12.9383 4.09323 15.7709C6.22534 18.6661 12.9003 24.2688 15.0203 26.0263C17.1403 24.2688 23.8153 18.6647 25.9474 15.7709C28.0432 12.9383 28.7216 8.51844 25.9353 5.55279C24.6718 4.29462 23.0142 3.62204 21.3093 3.67585C19.6045 3.72967 17.9847 4.50571 16.7891 5.8415L15.0203 7.80929L13.2396 5.8415C12.6119 5.15062 11.866 4.60305 11.0447 4.23038C10.2235 3.85771 9.3431 3.6673 8.45448 3.67015Z" fill="#FDAA4B"/>
</g>
<defs>
<clipPath id="clip0">
<rect width="30" height="30" fill="white"/>
</clipPath>
</defs>
</svg>
